<svg version="1.1" id="Layer_1" xmlns="http://www.w3.org/2000/svg" xmlns:xlink="http://www.w3.org/1999/xlink" x="0px" y="0px"
	 width="100%" viewBox="0 0 500 500" enable-background="new 0 0 500 500" xml:space="preserve">
<path fill="#000000" opacity="1.000000" stroke="none" 
	d="
M328.000000,501.000000 
	C218.666687,501.000000 109.833382,501.000000 1.000058,501.000000 
	C1.000039,334.333405 1.000039,167.666794 1.000019,1.000148 
	C167.666565,1.000099 334.333130,1.000099 500.999756,1.000049 
	C500.999847,167.666519 500.999847,334.333038 500.999939,500.999786 
	C443.500000,501.000000 386.000000,501.000000 328.000000,501.000000 
M245.920563,365.969757 
	C268.600128,366.018921 291.279694,366.068085 314.199615,366.748749 
	C315.148163,366.537415 316.096680,366.326080 317.858612,365.992859 
	C318.562469,365.402435 319.266296,364.812012 319.970154,364.221619 
	C319.222137,363.487549 318.555756,362.258789 317.709686,362.119232 
	C315.766052,361.798584 313.725677,362.130737 311.740814,361.981750 
	C303.258545,361.344971 296.617828,357.125793 296.929413,347.270447 
	C297.176300,339.462006 296.990753,331.639130 296.955658,323.822815 
	C296.930664,318.251648 295.677277,317.031250 290.007782,317.005554 
	C284.187134,316.979156 278.362915,317.120544 272.546661,316.958527 
	C268.516541,316.846222 266.892822,318.517090 266.967194,322.544189 
	C267.117645,330.690491 267.041168,338.841644 267.001312,346.990540 
	C266.963013,354.816162 263.263702,359.423248 255.638687,360.981934 
	C252.955872,361.530334 250.120590,361.415924 247.494446,362.122589 
	C246.221542,362.465149 245.270721,364.004486 244.064911,365.541046 
	C244.374008,365.635742 244.683105,365.730438 245.920563,365.969757 
M296.003632,268.086578 
	C296.329071,264.350098 296.911377,260.615234 296.935577,256.876831 
	C297.041046,240.572281 296.964142,224.266663 296.997437,207.961517 
	C297.009094,202.261414 299.558380,198.670410 305.171448,197.014587 
	C308.536499,196.021927 312.088715,195.672318 315.546265,194.980728 
	C317.101807,194.669540 318.631439,194.228882 320.172852,193.846970 
	C320.159668,193.215729 320.146484,192.584488 320.133301,191.953232 
	C318.411041,191.635559 316.690094,191.050522 314.966309,191.042130 
	C299.992432,190.969269 285.017792,190.952194 270.044098,191.043076 
	C267.301666,191.059708 264.557617,191.941574 261.823273,191.895187 
	C256.915283,191.811920 252.014877,191.154968 247.109482,191.132324 
	C245.888077,191.126678 244.659683,192.628265 243.434494,193.437073 
	C243.619339,193.915710 243.804184,194.394363 243.989014,194.873001 
	C246.511017,195.248032 249.046082,196.013748 251.552704,195.929810 
	C261.862213,195.584564 267.196960,201.539108 267.072540,211.416153 
	C266.850433,229.049667 267.104065,246.688995 266.921295,264.323425 
	C266.889740,267.366272 267.877197,269.479462 270.597351,269.670288 
	C277.029907,270.121521 283.502563,270.001160 290.240295,270.801666 
	C290.008118,271.537598 289.969574,272.742188 289.511536,272.931458 
	C287.020172,273.960724 284.250183,274.411926 281.900177,275.668335 
	C275.723755,278.970520 269.714691,282.585693 264.116150,285.802002 
	C263.201630,283.768616 262.294403,280.466003 261.634399,280.514679 
	C259.248901,280.690674 256.480042,281.459167 254.720718,282.994781 
	C251.999008,285.370361 255.845337,285.790558 256.613464,287.187744 
	C256.907104,287.721863 257.151947,288.574677 256.928619,289.053589 
	C255.513153,292.089233 254.022247,295.093994 252.439301,298.046234 
	C249.505951,303.516968 243.983215,301.591461 239.195435,302.105774 
	C243.038269,307.871979 249.866409,307.560760 254.708740,300.610138 
	C258.861633,294.649200 259.888245,293.806122 266.378448,299.674591 
	C269.004303,302.048889 272.857635,304.996552 275.845184,304.689911 
	C286.188263,303.628448 296.863007,306.402954 306.957428,302.135406 
	C308.184021,301.616882 310.064392,302.594360 311.628326,302.939453 
	C313.028351,303.248352 314.459991,304.078674 315.791290,303.925934 
	C324.151611,302.967010 332.554230,306.004364 340.986938,303.195435 
	C343.794678,302.260193 347.354462,303.493988 350.557037,303.855194 
	C354.635895,304.315247 358.195526,303.880219 360.284454,298.921661 
	C357.142975,299.329132 354.237183,300.615082 352.139648,299.805908 
	C346.092926,297.473206 340.608490,297.351776 334.997925,300.847748 
	C334.270782,301.300842 331.567719,300.314667 331.307007,299.504028 
	C329.587860,294.159149 326.623718,295.660492 323.645691,297.920624 
	C319.905823,300.758911 316.821014,300.830292 313.475220,297.085175 
	C309.554565,292.696564 309.349915,292.879395 305.705475,297.744263 
	C302.533020,301.979065 299.185120,301.844757 296.159515,297.752228 
	C295.467834,296.816589 293.188049,296.261414 292.005768,296.649139 
	C289.627594,297.428955 287.493927,298.964478 285.273193,300.212708 
	C278.811401,303.844818 270.211395,301.877350 266.284729,295.676819 
	C264.423492,292.737762 264.065979,289.935242 267.944519,287.948975 
	C269.933441,286.930389 271.605652,285.309509 273.481506,284.051025 
	C280.269867,279.496765 287.914307,277.920135 295.738068,276.998077 
	C296.017548,277.613220 296.297058,278.228333 296.576538,278.843475 
	C294.773590,279.867126 292.970612,280.890778 291.136383,281.932159 
	C292.078094,285.028168 293.614044,285.916595 295.995178,284.505402 
	C302.296783,280.770721 302.886169,277.029205 298.067413,271.562958 
	C297.353027,270.752533 296.763336,269.832214 296.003632,268.086578 
M203.064545,197.008209 
	C198.155884,197.339645 193.243729,197.995941 188.339172,197.943466 
	C171.612289,197.764496 154.886597,197.065628 138.163727,197.158447 
	C132.764862,197.188431 131.700592,195.079514 131.967026,190.529831 
	C132.419876,182.796600 132.837524,175.053925 132.957092,167.310394 
	C133.116348,156.996170 132.974579,146.677322 132.964935,136.360458 
	C132.952759,123.336395 137.237671,122.590195 145.666092,120.215515 
	C147.675949,119.649254 149.974106,120.193939 152.105331,119.939819 
	C153.501068,119.773407 154.835068,119.089294 156.196716,118.637039 
	C156.178864,118.186150 156.161026,117.735268 156.143188,117.284378 
	C154.890656,116.861633 153.638458,116.071632 152.385574,116.070541 
	C128.593872,116.049744 104.802078,116.121979 80.356033,116.137039 
	C80.195702,117.107773 80.035362,118.078499 80.308403,119.807030 
	C82.802139,119.868607 85.304672,119.818634 87.787849,120.014244 
	C93.510315,120.465027 98.930534,121.890984 101.203239,127.864174 
	C102.379211,130.954910 102.924423,134.467789 102.934059,137.792328 
	C103.048096,177.115189 103.028442,216.438553 102.964836,255.761658 
	C102.959877,258.825928 102.429306,261.898285 102.021042,264.950562 
	C101.583839,268.219238 103.714249,269.795532 106.918190,269.667694 
	C113.418770,269.408264 119.954338,269.566528 126.453865,269.934479 
	C129.660004,270.115967 132.693588,269.174042 132.787094,266.268585 
	C133.184479,253.918961 132.949707,241.549042 132.947571,229.186539 
	C132.946030,220.191055 132.947281,211.195587 132.947281,201.352371 
	C156.362793,201.055954 180.159607,200.072800 204.057312,202.597076 
	C204.245590,202.912354 204.523132,203.061310 205.011383,203.968735 
	C205.015488,222.781876 205.016251,241.595032 205.025238,260.408173 
	C205.029373,269.043365 205.036667,269.041046 213.264542,268.999481 
	C214.762726,268.991913 216.266571,268.931976 217.758255,269.034851 
	C221.841293,269.316437 225.916321,269.885254 230.000015,269.941650 
	C234.625900,270.005524 236.025284,268.018829 235.163086,263.426056 
	C235.011505,262.618622 235.001587,261.776184 235.001419,260.949921 
	C234.993073,218.994888 234.944153,177.039764 235.032425,135.084930 
	C235.050354,126.557922 239.025024,122.242111 247.296173,121.003395 
	C250.514038,120.521477 253.758286,120.215538 257.663513,119.847183 
	C259.540039,118.237869 259.461792,116.986954 256.064301,116.028519 
	C231.760468,116.142738 207.456604,116.249802 183.153244,116.429489 
	C182.726791,116.432640 182.306793,117.309212 180.751480,119.033699 
	C184.447571,119.441231 186.962036,119.673546 189.463867,120.002045 
	C200.899429,121.503601 204.700287,124.042274 204.880508,133.482681 
	C205.278061,154.304520 204.947632,175.140274 204.433838,196.085373 
	C204.123871,196.274796 203.968079,196.551132 203.064545,197.008209 
M387.416504,364.991943 
	C393.817810,365.327820 400.217010,365.770813 406.622437,365.897095 
	C407.726379,365.918823 408.856842,364.595001 409.975067,363.892731 
	C409.152618,363.201996 408.333160,362.507660 407.507172,361.821167 
	C402.969330,358.049408 397.627350,354.911743 394.056580,350.378632 
	C386.392853,340.649506 379.745605,330.125214 372.411591,320.124969 
	C371.257080,318.550751 368.716644,317.213257 366.764557,317.138580 
	C358.296509,316.814667 349.808289,316.945587 341.329254,317.054657 
	C339.982025,317.071991 337.753998,317.532471 337.503418,318.300446 
	C337.091583,319.562714 337.567322,321.506012 338.359375,322.706635 
	C343.851562,331.032074 349.437958,339.298737 355.156219,347.470825 
	C362.755676,358.331421 373.083435,364.464294 387.416504,364.991943 
M335.045349,266.510101 
	C334.620880,265.469635 334.472321,264.133667 333.726562,263.437286 
	C329.314423,259.317291 331.941864,255.970428 334.814270,252.730133 
	C336.799133,250.491013 339.120148,248.551422 341.126434,246.329407 
	C352.911835,233.276871 364.432404,219.976440 376.497375,207.188995 
	C382.165863,201.181107 388.739807,196.045166 397.838074,195.867950 
	C399.648712,195.832703 401.431396,194.359375 403.226959,193.549194 
	C403.201752,193.101196 403.176575,192.653214 403.151367,192.205231 
	C401.751404,191.808609 400.354767,191.082138 398.950989,191.068069 
	C388.622375,190.964493 378.291809,190.944199 367.963165,191.041031 
	C365.549286,191.063660 363.134918,191.934113 360.730713,191.888748 
	C356.481873,191.808609 352.243164,191.189850 347.994385,191.111450 
	C347.021027,191.093491 346.024078,192.354294 345.037994,193.026566 
	C345.922302,193.973038 346.652985,195.219391 347.737518,195.774948 
	C348.673859,196.254623 350.015930,195.907425 351.173065,195.997299 
	C355.243408,196.313293 359.332855,196.499176 363.374481,197.038330 
	C367.863708,197.637177 369.375244,200.524994 368.037079,204.977707 
	C365.033722,214.971558 356.905212,221.244171 350.584564,228.753143 
	C343.161652,237.571564 335.028198,245.791168 327.221283,254.287399 
	C323.994751,257.798859 320.727051,261.280029 317.674744,264.939056 
	C316.856995,265.919373 316.346222,267.563721 316.523285,268.782837 
	C316.603882,269.337982 318.689087,269.895111 319.884674,269.941223 
	C323.710968,270.088806 327.574493,270.264374 331.364471,269.866119 
	C332.854004,269.709595 334.187073,268.063934 335.045349,266.510101 
M208.603622,304.005371 
	C210.537643,303.751648 212.465393,303.363831 214.407028,303.273254 
	C218.016251,303.104919 221.804184,302.400879 225.204941,303.219391 
	C229.603714,304.278107 232.583984,302.642731 235.717529,300.093658 
	C233.957535,299.339569 232.033783,298.624115 230.596878,299.176056 
	C224.675034,301.450897 221.657028,301.006287 223.448029,291.926727 
	C223.886963,289.701538 223.513412,287.316071 223.513412,285.004272 
	C222.858917,284.904114 222.204422,284.803925 221.549927,284.703766 
	C218.787292,289.571411 216.024643,294.439056 212.952103,299.852753 
	C211.013504,297.280609 209.753525,295.608826 208.348312,293.744385 
	C205.370300,295.555481 202.429626,297.172913 199.678452,299.065796 
	C197.002869,300.906647 195.081833,300.057831 193.351471,297.811035 
	C189.538254,292.859711 187.959839,292.775635 184.190399,297.457947 
	C181.918732,300.279785 179.769226,301.072662 176.648392,298.269318 
	C173.973969,295.867035 170.698410,294.133942 167.736160,292.136902 
	C168.450150,287.937225 169.244690,283.263672 170.039230,278.590149 
	C169.245499,278.359894 168.451752,278.129669 167.658020,277.899445 
	C166.767807,280.206085 165.927185,282.533447 164.974106,284.813812 
	C163.916092,287.345276 162.755463,289.833832 161.639526,292.341064 
	C161.054703,292.213623 160.469879,292.086182 159.885056,291.958740 
	C159.885056,287.994324 159.885056,284.029877 159.885056,279.242249 
	C158.488220,280.287354 157.624939,280.595093 157.542236,281.045990 
	C156.355057,287.517426 151.936996,290.179016 146.026215,291.675964 
	C144.532562,292.054260 143.543915,294.426483 142.323196,295.882446 
	C142.470657,296.439575 142.618118,296.996735 142.765579,297.553864 
	C150.516907,293.912811 150.725189,300.131195 152.140274,303.940765 
	C154.699692,302.906372 156.659103,301.579681 158.707825,301.423340 
	C161.207520,301.232605 163.782242,302.024963 166.324509,302.392181 
	C167.970627,302.405518 169.690491,303.905151 171.378082,303.869690 
	C175.908798,303.774475 180.418594,302.932434 184.951553,302.575623 
	C186.797714,302.430267 188.690933,302.696960 190.547195,302.911011 
	C193.110535,303.206635 195.648941,303.802124 198.216690,303.954224 
	C201.365738,304.140747 204.534073,304.002167 208.603622,304.005371 
z"/>
<path fill="#FFFFFF" opacity="1.000000" stroke="none" 
	d="
M256.990509,119.829445 
	C253.758286,120.215538 250.514038,120.521477 247.296173,121.003395 
	C239.025024,122.242111 235.050354,126.557922 235.032425,135.084930 
	C234.944153,177.039764 234.993073,218.994888 235.001419,260.949921 
	C235.001587,261.776184 235.011505,262.618622 235.163086,263.426056 
	C236.025284,268.018829 234.625900,270.005524 230.000015,269.941650 
	C225.916321,269.885254 221.841293,269.316437 217.758255,269.034851 
	C216.266571,268.931976 214.762726,268.991913 213.264542,268.999481 
	C205.036667,269.041046 205.029373,269.043365 205.025238,260.408173 
	C205.016251,241.595032 205.015488,222.781876 205.189362,203.358536 
	C205.387039,202.336746 205.406723,201.925140 205.426392,201.513550 
	C204.937515,201.713562 204.448624,201.913559 203.959747,202.113571 
	C180.159607,200.072800 156.362793,201.055954 132.947281,201.352371 
	C132.947281,211.195587 132.946030,220.191055 132.947571,229.186539 
	C132.949707,241.549042 133.184479,253.918961 132.787094,266.268585 
	C132.693588,269.174042 129.660004,270.115967 126.453865,269.934479 
	C119.954338,269.566528 113.418770,269.408264 106.918190,269.667694 
	C103.714249,269.795532 101.583839,268.219238 102.021042,264.950562 
	C102.429306,261.898285 102.959877,258.825928 102.964836,255.761658 
	C103.028442,216.438553 103.048096,177.115189 102.934059,137.792328 
	C102.924423,134.467789 102.379211,130.954910 101.203239,127.864174 
	C98.930534,121.890984 93.510315,120.465027 87.787849,120.014244 
	C85.304672,119.818634 82.802139,119.868607 80.366554,119.247147 
	C80.619911,117.849808 80.815109,117.012352 81.010307,116.174896 
	C104.802078,116.121979 128.593872,116.049744 152.385574,116.070541 
	C153.638458,116.071632 154.890656,116.861633 156.143188,117.284378 
	C156.161026,117.735268 156.178864,118.186150 156.196716,118.637039 
	C154.835068,119.089294 153.501068,119.773407 152.105331,119.939819 
	C149.974106,120.193939 147.675949,119.649254 145.666092,120.215515 
	C137.237671,122.590195 132.952759,123.336395 132.964935,136.360458 
	C132.974579,146.677322 133.116348,156.996170 132.957092,167.310394 
	C132.837524,175.053925 132.419876,182.796600 131.967026,190.529831 
	C131.700592,195.079514 132.764862,197.188431 138.163727,197.158447 
	C154.886597,197.065628 171.612289,197.764496 188.339172,197.943466 
	C193.243729,197.995941 198.155884,197.339645 203.664429,197.195740 
	C204.672623,197.399521 205.080917,197.415787 205.489212,197.432037 
	C205.297562,196.944809 205.105911,196.457581 204.914246,195.970352 
	C204.947632,175.140274 205.278061,154.304520 204.880508,133.482681 
	C204.700287,124.042274 200.899429,121.503601 189.463867,120.002045 
	C186.962036,119.673546 184.447571,119.441231 180.751480,119.033699 
	C182.306793,117.309212 182.726791,116.432640 183.153244,116.429489 
	C207.456604,116.249802 231.760468,116.142738 256.529602,116.467140 
	C256.993439,117.880325 256.991974,118.854881 256.990509,119.829445 
z"/>
<path fill="#FEFEFE" opacity="1.000000" stroke="none" 
	d="
M289.958984,270.111938 
	C283.502563,270.001160 277.029907,270.121521 270.597351,269.670288 
	C267.877197,269.479462 266.889740,267.366272 266.921295,264.323425 
	C267.104065,246.688995 266.850433,229.049667 267.072540,211.416153 
	C267.196960,201.539108 261.862213,195.584564 251.552704,195.929810 
	C249.046082,196.013748 246.511017,195.248032 243.989014,194.873001 
	C243.804184,194.394363 243.619339,193.915710 243.434494,193.437073 
	C244.659683,192.628265 245.888077,191.126678 247.109482,191.132324 
	C252.014877,191.154968 256.915283,191.811920 261.823273,191.895187 
	C264.557617,191.941574 267.301666,191.059708 270.044098,191.043076 
	C285.017792,190.952194 299.992432,190.969269 314.966309,191.042130 
	C316.690094,191.050522 318.411041,191.635559 320.133301,191.953232 
	C320.146484,192.584488 320.159668,193.215729 320.172852,193.846970 
	C318.631439,194.228882 317.101807,194.669540 315.546265,194.980728 
	C312.088715,195.672318 308.536499,196.021927 305.171448,197.014587 
	C299.558380,198.670410 297.009094,202.261414 296.997437,207.961517 
	C296.964142,224.266663 297.041046,240.572281 296.935577,256.876831 
	C296.911377,260.615234 296.329071,264.350098 295.641724,268.533936 
	C293.506195,269.358185 291.732574,269.735077 289.958984,270.111938 
z"/>
<path fill="#FFFFFF" opacity="1.000000" stroke="none" 
	d="
M313.959259,366.117249 
	C291.279694,366.068085 268.600128,366.018921 245.363464,365.721222 
	C244.641876,365.253632 244.431122,365.096741 244.174088,365.002014 
	C245.270721,364.004486 246.221542,362.465149 247.494446,362.122589 
	C250.120590,361.415924 252.955872,361.530334 255.638687,360.981934 
	C263.263702,359.423248 266.963013,354.816162 267.001312,346.990540 
	C267.041168,338.841644 267.117645,330.690491 266.967194,322.544189 
	C266.892822,318.517090 268.516541,316.846222 272.546661,316.958527 
	C278.362915,317.120544 284.187134,316.979156 290.007782,317.005554 
	C295.677277,317.031250 296.930664,318.251648 296.955658,323.822815 
	C296.990753,331.639130 297.176300,339.462006 296.929413,347.270447 
	C296.617828,357.125793 303.258545,361.344971 311.740814,361.981750 
	C313.725677,362.130737 315.766052,361.798584 317.709686,362.119232 
	C318.555756,362.258789 319.222137,363.487549 319.970154,364.221619 
	C319.266296,364.812012 318.562469,365.402435 317.269318,365.783081 
	C315.773102,365.754608 314.866180,365.935913 313.959259,366.117249 
z"/>
<path fill="#FEFEFE" opacity="1.000000" stroke="none" 
	d="
M386.959106,364.991150 
	C373.083435,364.464294 362.755676,358.331421 355.156219,347.470825 
	C349.437958,339.298737 343.851562,331.032074 338.359375,322.706635 
	C337.567322,321.506012 337.091583,319.562714 337.503418,318.300446 
	C337.753998,317.532471 339.982025,317.071991 341.329254,317.054657 
	C349.808289,316.945587 358.296509,316.814667 366.764557,317.138580 
	C368.716644,317.213257 371.257080,318.550751 372.411591,320.124969 
	C379.745605,330.125214 386.392853,340.649506 394.056580,350.378632 
	C397.627350,354.911743 402.969330,358.049408 407.507172,361.821167 
	C408.333160,362.507660 409.152618,363.201996 409.975067,363.892700 
	C408.856842,364.595001 407.726379,365.918823 406.622437,365.897095 
	C400.217010,365.770813 393.817810,365.327820 386.959106,364.991150 
z"/>
<path fill="#FDFDFD" opacity="1.000000" stroke="none" 
	d="
M335.318390,266.803284 
	C334.187073,268.063934 332.854004,269.709595 331.364471,269.866119 
	C327.574493,270.264374 323.710968,270.088806 319.884674,269.941223 
	C318.689087,269.895111 316.603882,269.337982 316.523285,268.782837 
	C316.346222,267.563721 316.856995,265.919373 317.674744,264.939056 
	C320.727051,261.280029 323.994751,257.798859 327.221283,254.287399 
	C335.028198,245.791168 343.161652,237.571564 350.584564,228.753143 
	C356.905212,221.244171 365.033722,214.971558 368.037079,204.977707 
	C369.375244,200.524994 367.863708,197.637177 363.374481,197.038330 
	C359.332855,196.499176 355.243408,196.313293 351.173065,195.997299 
	C350.015930,195.907425 348.673859,196.254623 347.737518,195.774948 
	C346.652985,195.219391 345.922302,193.973038 345.037994,193.026566 
	C346.024078,192.354294 347.021027,191.093491 347.994385,191.111450 
	C352.243164,191.189850 356.481873,191.808609 360.730713,191.888748 
	C363.134918,191.934113 365.549286,191.063660 367.963165,191.041031 
	C378.291809,190.944199 388.622375,190.964493 398.950989,191.068069 
	C400.354767,191.082138 401.751404,191.808609 403.151367,192.205231 
	C403.176575,192.653214 403.201752,193.101196 403.226959,193.549194 
	C401.431396,194.359375 399.648712,195.832703 397.838074,195.867950 
	C388.739807,196.045166 382.165863,201.181107 376.497375,207.188995 
	C364.432404,219.976440 352.911835,233.276871 341.126434,246.329407 
	C339.120148,248.551422 336.799133,250.491013 334.814270,252.730133 
	C331.941864,255.970428 329.314423,259.317291 333.726562,263.437286 
	C334.472321,264.133667 334.620880,265.469635 335.318390,266.803284 
z"/>
<path fill="#F9F9F9" opacity="1.000000" stroke="none" 
	d="
M290.099640,270.456787 
	C291.732574,269.735077 293.506195,269.358185 295.697876,268.972046 
	C296.763336,269.832214 297.353027,270.752533 298.067413,271.562958 
	C302.886169,277.029205 302.296783,280.770721 295.995178,284.505402 
	C293.614044,285.916595 292.078094,285.028168 291.136383,281.932159 
	C292.970612,280.890778 294.773590,279.867126 296.576538,278.843475 
	C296.297058,278.228333 296.017548,277.613220 295.738068,276.998077 
	C287.914307,277.920135 280.269867,279.496765 273.481506,284.051025 
	C271.605652,285.309509 269.933441,286.930389 267.944519,287.948975 
	C264.065979,289.935242 264.423492,292.737762 266.284729,295.676819 
	C270.211395,301.877350 278.811401,303.844818 285.273193,300.212708 
	C287.493927,298.964478 289.627594,297.428955 292.005768,296.649139 
	C293.188049,296.261414 295.467834,296.816589 296.159515,297.752228 
	C299.185120,301.844757 302.533020,301.979065 305.705475,297.744263 
	C309.349915,292.879395 309.554565,292.696564 313.475220,297.085175 
	C316.821014,300.830292 319.905823,300.758911 323.645691,297.920624 
	C326.623718,295.660492 329.587860,294.159149 331.307007,299.504028 
	C331.567719,300.314667 334.270782,301.300842 334.997925,300.847748 
	C340.608490,297.351776 346.092926,297.473206 352.139648,299.805908 
	C354.237183,300.615082 357.142975,299.329132 360.284454,298.921661 
	C358.195526,303.880219 354.635895,304.315247 350.557037,303.855194 
	C347.354462,303.493988 343.794678,302.260193 340.986938,303.195435 
	C332.554230,306.004364 324.151611,302.967010 315.791290,303.925934 
	C314.459991,304.078674 313.028351,303.248352 311.628326,302.939453 
	C310.064392,302.594360 308.184021,301.616882 306.957428,302.135406 
	C296.863007,306.402954 286.188263,303.628448 275.845184,304.689911 
	C272.857635,304.996552 269.004303,302.048889 266.378448,299.674591 
	C259.888245,293.806122 258.861633,294.649200 254.708740,300.610138 
	C249.866409,307.560760 243.038269,307.871979 239.195435,302.105774 
	C243.983215,301.591461 249.505951,303.516968 252.439301,298.046234 
	C254.022247,295.093994 255.513153,292.089233 256.928619,289.053589 
	C257.151947,288.574677 256.907104,287.721863 256.613464,287.187744 
	C255.845337,285.790558 251.999008,285.370361 254.720718,282.994781 
	C256.480042,281.459167 259.248901,280.690674 261.634399,280.514679 
	C262.294403,280.466003 263.201630,283.768616 264.116150,285.802002 
	C269.714691,282.585693 275.723755,278.970520 281.900177,275.668335 
	C284.250183,274.411926 287.020172,273.960724 289.511536,272.931458 
	C289.969574,272.742188 290.008118,271.537598 290.099640,270.456787 
z"/>
<path fill="#F9F9F9" opacity="1.000000" stroke="none" 
	d="
M208.148834,304.004761 
	C204.534073,304.002167 201.365738,304.140747 198.216690,303.954224 
	C195.648941,303.802124 193.110535,303.206635 190.547195,302.911011 
	C188.690933,302.696960 186.797714,302.430267 184.951553,302.575623 
	C180.418594,302.932434 175.908798,303.774475 171.378082,303.869690 
	C169.690491,303.905151 167.970627,302.405518 166.324509,302.392181 
	C163.782242,302.024963 161.207520,301.232605 158.707825,301.423340 
	C156.659103,301.579681 154.699692,302.906372 152.140274,303.940765 
	C150.725189,300.131195 150.516907,293.912811 142.765579,297.553864 
	C142.618118,296.996735 142.470657,296.439575 142.323196,295.882446 
	C143.543915,294.426483 144.532562,292.054260 146.026215,291.675964 
	C151.936996,290.179016 156.355057,287.517426 157.542236,281.045990 
	C157.624939,280.595093 158.488220,280.287354 159.885056,279.242249 
	C159.885056,284.029877 159.885056,287.994324 159.885056,291.958740 
	C160.469879,292.086182 161.054703,292.213623 161.639526,292.341064 
	C162.755463,289.833832 163.916092,287.345276 164.974106,284.813812 
	C165.927185,282.533447 166.767807,280.206085 167.658020,277.899445 
	C168.451752,278.129669 169.245499,278.359894 170.039230,278.590149 
	C169.244690,283.263672 168.450150,287.937225 167.736160,292.136902 
	C170.698410,294.133942 173.973969,295.867035 176.648392,298.269318 
	C179.769226,301.072662 181.918732,300.279785 184.190399,297.457947 
	C187.959839,292.775635 189.538254,292.859711 193.351471,297.811035 
	C195.081833,300.057831 197.002869,300.906647 199.678452,299.065796 
	C202.429626,297.172913 205.370300,295.555481 208.348312,293.744385 
	C209.753525,295.608826 211.013504,297.280609 212.952103,299.852753 
	C216.024643,294.439056 218.787292,289.571411 221.549927,284.703766 
	C222.204422,284.803925 222.858917,284.904114 223.513412,285.004272 
	C223.513412,287.316071 223.886963,289.701538 223.448029,291.926727 
	C221.657028,301.006287 224.675034,301.450897 230.596878,299.176056 
	C232.033783,298.624115 233.957535,299.339569 235.717529,300.093658 
	C232.583984,302.642731 229.603714,304.278107 225.204941,303.219391 
	C221.804184,302.400879 218.016251,303.104919 214.407028,303.273254 
	C212.465393,303.363831 210.537643,303.751648 208.148834,304.004761 
z"/>
<path fill="#F4F4F4" opacity="1.000000" stroke="none" 
	d="
M257.327026,119.838318 
	C256.991974,118.854881 256.993439,117.880325 256.992554,116.540306 
	C259.461792,116.986954 259.540039,118.237869 257.327026,119.838318 
z"/>
<path fill="#F4F4F4" opacity="1.000000" stroke="none" 
	d="
M314.079437,366.432983 
	C314.866180,365.935913 315.773102,365.754608 316.862610,365.844025 
	C316.096680,366.326080 315.148163,366.537415 314.079437,366.432983 
z"/>
<path fill="#F3F3F3" opacity="1.000000" stroke="none" 
	d="
M80.683167,116.155960 
	C80.815109,117.012352 80.619911,117.849808 80.149864,118.868256 
	C80.035362,118.078499 80.195702,117.107773 80.683167,116.155960 
z"/>
<path fill="#F4F4F4" opacity="1.000000" stroke="none" 
	d="
M204.674042,196.027863 
	C205.105911,196.457581 205.297562,196.944809 205.489212,197.432037 
	C205.080917,197.415787 204.672623,197.399521 204.115387,197.148834 
	C203.968079,196.551132 204.123871,196.274796 204.674042,196.027863 
z"/>
<path fill="#F4F4F4" opacity="1.000000" stroke="none" 
	d="
M204.008530,202.355316 
	C204.448624,201.913559 204.937515,201.713562 205.426392,201.513550 
	C205.406723,201.925140 205.387039,202.336746 205.128647,202.896149 
	C204.523132,203.061310 204.245590,202.912354 204.008530,202.355316 
z"/>
<path fill="#F4F4F4" opacity="1.000000" stroke="none" 
	d="
M244.119507,365.271545 
	C244.431122,365.096741 244.641876,365.253632 244.899277,365.648926 
	C244.683105,365.730438 244.374008,365.635742 244.119507,365.271545 
z"/>
</svg>